<?xml version="1.0" standalone="no"?>
<!DOCTYPE svg PUBLIC "-//W3C//DTD SVG 20010904//EN"
 "http://www.w3.org/TR/2001/REC-SVG-20010904/DTD/svg10.dtd">
<svg version="1.0" xmlns="http://www.w3.org/2000/svg"
 width="300.000000pt" height="303.000000pt" viewBox="0 0 300.000000 303.000000"
 preserveAspectRatio="xMidYMid meet">
<metadata>
Created by potrace 1.10, written by Peter Selinger 2001-2011
</metadata>
<g transform="translate(0.000000,303.000000) scale(0.100000,-0.100000)"
fill="#000000" stroke="none">
<path d="M1530 2920 c0 -3 -26 -5 -58 -5 -146 1 -358 -43 -507 -105 -141 -59
-308 -168 -415 -271 -92 -88 -240 -278 -240 -308 0 -5 -8 -14 -17 -20 -10 -5
-18 -20 -18 -33 0 -14 -5 -22 -13 -20 -8 1 -12 -5 -10 -15 1 -10 -7 -36 -18
-58 -26 -51 -70 -183 -83 -255 -6 -30 -13 -68 -17 -85 -3 -16 -6 -40 -6 -52 0
-13 -5 -23 -12 -23 -7 0 -7 -3 -1 -8 6 -4 10 -59 11 -127 0 -125 7 -229 16
-255 7 -20 58 -198 65 -230 3 -14 10 -28 14 -31 5 -3 10 -17 11 -32 1 -15 6
-27 10 -27 4 0 23 -30 42 -67 63 -126 173 -266 291 -372 33 -30 59 -58 57 -63
-1 -4 1 -7 5 -6 10 3 56 -22 64 -34 11 -17 234 -138 266 -144 18 -3 36 -10 38
-15 6 -8 143 -52 200 -63 17 -4 41 -9 55 -12 25 -5 116 -13 158 -14 14 0 21
-4 16 -11 -4 -8 0 -8 15 0 12 7 27 9 34 4 17 -10 47 -11 47 -1 0 4 24 8 53 8
83 0 232 28 344 65 241 80 459 226 614 411 82 100 139 180 139 198 0 7 7 19
15 26 8 7 15 19 15 27 0 8 4 12 9 9 5 -4 13 8 16 26 4 18 14 42 21 53 32 49
94 266 100 354 2 30 9 60 15 68 6 7 8 13 3 13 -5 0 -8 55 -6 122 4 144 -15
274 -57 403 -36 109 -53 155 -66 175 -5 8 -10 17 -10 20 -3 21 -97 177 -131
217 -45 52 -54 64 -54 72 0 14 -151 154 -231 213 -81 61 -250 158 -275 158 -8
0 -12 5 -9 10 3 6 -4 10 -17 10 -13 1 -41 8 -63 16 -93 36 -206 61 -312 71
-40 3 -73 9 -73 12 0 4 -9 7 -20 7 -11 0 -20 -3 -20 -6z m188 -56 c290 -48
542 -181 748 -396 178 -186 295 -406 350 -658 28 -127 26 -430 -4 -557 -107
-464 -444 -837 -892 -987 -149 -49 -231 -61 -430 -61 -164 1 -197 4 -296 27
-515 122 -905 522 -1015 1041 -18 81 -22 135 -22 267 0 242 36 397 143 610 67
132 138 229 249 341 307 306 739 444 1169 373z"/>
<path d="M890 2450 c-28 -28 -25 -64 6 -89 31 -25 44 -26 69 -7 17 12 16 14
-19 12 -44 -1 -62 18 -53 56 7 27 36 41 58 27 7 -4 17 -5 22 -2 5 3 3 9 -4 14
-24 15 -58 10 -79 -11z"/>
<path d="M1011 2444 c-27 -34 -26 -50 4 -79 43 -44 105 -21 105 39 0 64 -70
90 -109 40z m90 -16 c15 -27 2 -57 -28 -64 -34 -9 -57 6 -61 39 -6 49 65 70
89 25z"/>
<path d="M1152 2405 l1 -70 6 54 6 54 33 -46 c48 -67 52 -67 52 8 0 36 -4 64
-9 61 -5 -3 -7 -27 -4 -53 l4 -48 -23 30 c-13 16 -33 41 -45 55 l-22 25 1 -70z"/>
<path d="M1293 2463 c-25 -9 -14 -44 17 -56 18 -7 30 -19 30 -29 0 -21 -30
-24 -49 -5 -11 10 -13 9 -9 -2 13 -43 70 -37 76 8 3 17 -5 25 -33 37 -30 12
-35 18 -25 29 9 11 17 12 30 5 27 -14 34 -12 20 5 -12 15 -34 18 -57 8z"/>
<path d="M1392 2417 c-2 -52 0 -59 22 -68 41 -19 63 2 68 62 1 28 0 53 -4 55
-4 3 -8 -19 -10 -48 -3 -52 -4 -53 -33 -53 -29 0 -30 2 -36 55 l-6 55 -1 -58z"/>
<path d="M1520 2467 c-3 -3 -3 -33 -2 -66 l4 -61 39 0 c21 0 39 5 39 10 0 6
-16 10 -35 10 l-34 0 -3 56 c-2 31 -5 54 -8 51z"/>
<path d="M1584 2463 c4 -4 15 -8 24 -8 13 0 18 -13 23 -60 l6 -60 1 62 c2 55
4 62 25 66 12 2 -2 5 -32 6 -30 0 -51 -2 -47 -6z"/>
<path d="M1712 2454 c-29 -20 -29 -67 0 -94 29 -27 54 -25 83 5 30 29 32 58 5
85 -24 24 -57 26 -88 4z m85 -32 c8 -32 -7 -56 -39 -60 -54 -7 -75 68 -25 87
32 12 56 2 64 -27z"/>
<path d="M1840 2405 c0 -42 4 -64 10 -60 6 3 10 15 10 26 0 27 15 24 39 -8 13
-19 20 -23 21 -12 0 8 -5 20 -11 26 -8 8 -7 17 3 32 18 29 0 55 -41 59 l-31 3
0 -66z m56 40 c19 -15 19 -15 0 -30 -29 -22 -36 -19 -36 15 0 34 7 37 36 15z"/>
<path d="M1940 2404 c0 -41 4 -63 10 -59 6 3 10 33 10 66 0 33 -4 59 -10 59
-6 0 -10 -29 -10 -66z"/>
<path d="M1999 2449 c-27 -27 -21 -66 12 -92 62 -46 134 38 79 93 -26 26 -64
26 -91 -1z m92 -26 c16 -44 -46 -84 -79 -51 -19 19 -14 55 9 72 26 18 59 8 70
-21z"/>
<path d="M776 2268 c-21 -30 -20 -54 4 -78 24 -24 72 -26 94 -4 20 20 20 68 0
88 -24 24 -80 20 -98 -6z m86 -5 c22 -20 23 -41 1 -65 -20 -22 -46 -23 -67 -2
-30 29 -9 84 31 84 9 0 25 -7 35 -17z"/>
<path d="M920 2230 l0 -61 37 3 c49 4 72 42 51 86 -10 21 -21 28 -51 30 l-37
3 0 -61z m64 34 c34 -33 10 -84 -38 -84 -12 0 -16 11 -16 50 0 43 3 50 19 50
11 0 27 -7 35 -16z"/>
<path d="M1046 2268 c-32 -45 -6 -98 48 -98 39 0 66 26 66 62 0 55 -83 81
-114 36z m84 -8 c11 -11 20 -24 20 -30 0 -13 -37 -50 -51 -50 -64 0 -65 98 -1
100 6 0 21 -9 32 -20z"/>
<path d="M1192 2228 l1 -63 6 49 6 49 33 -47 c18 -25 37 -46 43 -46 5 0 9 27
9 60 0 33 -4 60 -10 60 -5 0 -10 -21 -10 -46 l0 -47 -35 47 c-20 25 -38 46
-40 46 -3 0 -4 -28 -3 -62z"/>
<path d="M1328 2283 c20 -4 22 -10 22 -59 0 -30 4 -53 9 -50 4 3 6 28 3 55 -4
48 -4 50 24 54 16 2 4 4 -26 4 -30 0 -45 -2 -32 -4z"/>
<path d="M1427 2272 c-38 -42 -8 -102 50 -102 55 0 85 67 45 103 -25 22 -75
21 -95 -1z m74 -2 c29 -16 26 -67 -5 -81 -34 -16 -66 3 -66 41 0 41 33 60 71
40z"/>
<path d="M1560 2230 l0 -60 48 2 c43 1 44 2 10 5 l-38 4 0 55 c0 30 -4 54 -10
54 -6 0 -10 -27 -10 -60z"/>
<path d="M1667 2272 c-40 -44 -6 -106 54 -100 47 4 71 46 49 86 -20 35 -77 43
-103 14z m83 -12 c11 -11 20 -24 20 -30 0 -15 -38 -50 -55 -50 -17 0 -55 35
-55 50 0 15 38 50 55 50 8 0 24 -9 35 -20z"/>
<path d="M1822 2283 c-22 -9 -33 -50 -20 -78 21 -46 91 -48 96 -2 3 23 0 27
-20 26 -13 0 -17 -3 -10 -6 19 -8 15 -43 -6 -43 -22 0 -52 30 -52 52 0 27 35
50 65 42 20 -5 26 -4 21 5 -7 11 -50 14 -74 4z"/>
<path d="M1923 2230 c1 -33 5 -60 9 -60 4 0 8 27 8 60 0 33 -4 60 -10 60 -5 0
-8 -27 -7 -60z"/>
<path d="M1976 2268 c-32 -46 -6 -98 49 -98 19 0 37 5 41 11 4 8 -3 9 -24 5
-21 -5 -34 -2 -46 9 -37 37 -5 91 46 79 21 -4 28 -3 24 5 -13 20 -74 13 -90
-11z"/>
<path d="M2106 2275 c-9 -9 -16 -29 -16 -45 0 -41 25 -62 68 -58 28 2 40 10
52 31 13 24 13 30 0 55 -19 33 -78 43 -104 17z m78 -11 c30 -29 9 -84 -31 -84
-21 0 -53 29 -53 48 0 22 30 52 51 52 10 0 25 -7 33 -16z"/>
<path d="M407 2023 c-3 -5 -17 -46 -32 -93 -74 -237 -73 -548 2 -785 16 -49
35 -91 42 -93 10 -3 12 0 7 14 -24 61 -59 203 -73 289 -26 173 -6 428 48 582
31 90 32 93 21 93 -6 0 -13 -3 -15 -7z"/>
<path d="M2570 2026 c0 -3 7 -23 15 -43 50 -130 75 -296 71 -478 -4 -145 -20
-243 -62 -375 -22 -71 -24 -94 -5 -74 17 17 59 169 75 270 20 126 20 299 1
425 -16 109 -65 271 -83 277 -6 2 -12 1 -12 -2z"/>
<path d="M1482 1953 c4 -66 28 -70 28 -4 0 39 -4 51 -16 51 -12 0 -14 -10 -12
-47z"/>
<path d="M1367 1964 c-9 -9 36 -84 51 -84 18 0 15 28 -9 61 -20 29 -30 34 -42
23z"/>
<path d="M1581 1934 c-20 -33 -20 -54 -1 -54 9 0 50 66 50 81 0 22 -30 6 -49
-27z"/>
<path d="M1115 1896 c-41 -18 -83 -69 -90 -109 -4 -19 1 -69 10 -113 12 -58
15 -102 10 -167 -7 -96 0 -117 40 -117 29 0 44 18 75 94 16 38 32 62 44 64 17
4 18 -3 11 -91 -7 -91 -6 -96 14 -107 38 -20 58 -3 100 83 21 45 64 111 95
146 42 48 57 74 62 107 16 107 -67 189 -170 170 -25 -5 -37 -2 -51 14 -17 19
-73 40 -105 40 -8 -1 -29 -7 -45 -14z m108 -37 c12 -6 29 -20 37 -30 13 -16
20 -17 52 -7 44 13 83 1 120 -39 17 -19 23 -36 23 -72 0 -43 -5 -53 -53 -106
-28 -33 -73 -99 -98 -148 -56 -108 -72 -106 -57 5 11 77 6 101 -25 117 -33 18
-63 -9 -92 -84 -15 -38 -34 -71 -43 -73 -13 -3 -14 12 -10 100 3 71 0 125 -10
172 -14 62 -14 74 0 108 9 21 27 45 42 53 32 17 84 19 114 4z"/>
<path d="M1764 1891 c-23 -10 -44 -23 -48 -29 -3 -6 -24 -8 -46 -5 -75 10
-145 -40 -163 -117 -11 -46 9 -98 67 -166 30 -37 72 -100 91 -140 41 -83 56
-98 85 -89 34 11 41 38 29 114 -6 39 -8 75 -4 81 15 24 35 5 60 -57 33 -82 41
-93 71 -93 37 0 53 35 45 102 -4 32 -3 92 3 135 22 182 11 223 -70 263 -50 25
-68 25 -120 1z m122 -40 c51 -31 59 -65 40 -171 -12 -65 -15 -113 -10 -175 6
-71 4 -85 -8 -85 -9 0 -26 27 -42 70 -17 43 -38 77 -52 87 -22 14 -26 14 -50
-2 -26 -17 -26 -20 -20 -84 3 -36 9 -76 12 -87 4 -14 0 -23 -10 -27 -11 -4
-25 15 -55 76 -22 45 -65 110 -95 145 -29 35 -57 77 -60 94 -8 42 20 97 63
122 29 17 40 18 74 9 39 -11 43 -10 74 18 40 35 92 39 139 10z"/>
<path d="M1068 849 c-27 -15 -21 -39 12 -52 17 -6 30 -18 30 -25 0 -11 -8 -13
-30 -8 -37 7 -40 -11 -3 -20 19 -5 30 -2 39 10 17 23 8 45 -22 52 -13 3 -24
13 -24 21 0 11 7 13 25 9 27 -7 35 8 9 18 -19 7 -15 8 -36 -5z"/>
<path d="M1352 845 c-43 -31 -18 -105 36 -105 34 0 35 18 1 22 -65 6 -65 75 0
72 17 -1 31 2 31 7 0 5 -4 9 -9 9 -5 0 -15 2 -23 5 -7 3 -23 -2 -36 -10z"/>
<path d="M1490 849 c0 -5 9 -9 21 -9 18 0 20 -4 14 -44 -5 -28 -3 -46 4 -50 7
-5 11 9 11 43 0 46 2 51 22 51 12 0 18 3 14 7 -10 11 -86 12 -86 2z"/>
<path d="M1156 808 c8 -50 20 -68 45 -68 25 0 49 38 49 77 0 48 -18 40 -22 -9
-3 -38 -6 -43 -28 -43 -22 0 -25 5 -28 43 -2 23 -7 42 -13 42 -5 0 -7 -18 -3
-42z"/>
<path d="M1450 794 c0 -34 4 -53 10 -49 6 3 10 28 10 56 0 27 -4 49 -10 49 -5
0 -10 -25 -10 -56z"/>
<path d="M1606 817 c-7 -19 -17 -45 -20 -58 -6 -22 -6 -22 7 -6 18 22 53 22
66 0 5 -10 12 -15 15 -12 7 7 -35 109 -46 109 -4 0 -14 -15 -22 -33z m37 -17
c4 -15 0 -20 -14 -20 -21 0 -22 1 -13 24 8 22 21 20 27 -4z"/>
<path d="M1761 798 c-12 -28 -19 -53 -16 -56 2 -3 7 3 11 12 8 21 60 21 68 0
4 -9 9 -15 11 -12 7 7 -36 108 -45 108 -4 0 -17 -23 -29 -52z m43 6 c9 -23 8
-24 -14 -24 -11 0 -20 2 -20 4 0 12 13 36 20 36 4 0 11 -7 14 -16z"/>
<path d="M1860 795 l0 -55 41 0 c26 0 38 4 33 11 -3 6 -17 9 -30 6 -23 -4 -24
-1 -24 44 0 27 -4 49 -10 49 -5 0 -10 -25 -10 -55z"/>
<path d="M1100 645 c0 -30 5 -55 10 -55 6 0 10 25 10 55 0 30 -4 55 -10 55 -5
0 -10 -25 -10 -55z"/>
<path d="M1150 645 c0 -30 5 -55 10 -55 6 0 10 17 10 38 l0 37 35 -40 34 -40
1 35 c0 19 3 45 6 58 4 12 2 22 -4 22 -6 0 -12 -18 -14 -41 l-3 -41 -30 41
c-16 22 -33 41 -37 41 -5 0 -8 -25 -8 -55z"/>
<path d="M1284 686 c-9 -24 3 -46 25 -46 24 0 36 -29 16 -36 -9 -4 -22 -1 -30
6 -12 10 -15 10 -15 -3 0 -20 27 -29 51 -17 30 16 24 49 -11 61 -16 6 -30 15
-30 19 0 17 21 21 37 8 14 -11 16 -11 11 2 -7 21 -47 25 -54 6z"/>
<path d="M1378 693 c19 -4 22 -11 22 -54 0 -27 5 -49 10 -49 6 0 10 22 10 49
0 39 4 51 18 54 9 3 -5 5 -33 4 -27 0 -40 -2 -27 -4z"/>
<path d="M1479 653 c-11 -25 -18 -51 -15 -57 3 -7 5 -6 5 2 1 6 14 12 29 12
15 0 34 -6 41 -12 11 -11 12 -9 6 11 -12 40 -35 91 -40 91 -3 0 -15 -21 -26
-47z m41 -20 c0 -7 -7 -13 -15 -13 -16 0 -19 9 -9 35 5 13 8 14 15 3 5 -7 9
-19 9 -25z"/>
<path d="M1580 700 c-7 -36 -6 -110 1 -110 5 0 9 19 9 43 l0 42 25 -30 c13
-16 24 -25 24 -20 0 10 -58 84 -59 75z"/>
<path d="M1649 660 c-1 -22 -2 -45 -3 -52 -1 -6 5 -13 12 -15 9 -4 12 11 12
51 0 63 -19 78 -21 16z"/>
<path d="M1707 693 c19 -4 23 -12 26 -56 l3 -52 2 52 c2 45 5 52 25 56 12 2 0
4 -28 4 -27 0 -40 -2 -28 -4z"/>
<path d="M1802 643 l3 -58 38 -3 c21 -2 37 1 37 7 0 6 -13 11 -30 11 -41 0
-43 37 -2 43 l27 4 -27 2 c-21 1 -28 6 -28 20 0 15 8 21 33 24 27 3 26 4 -11
5 l-43 2 3 -57z"/>
</g>
</svg>
